<?xml version="1.0" standalone="no"?>
<!DOCTYPE svg PUBLIC "-//W3C//DTD SVG 20010904//EN"
 "http://www.w3.org/TR/2001/REC-SVG-20010904/DTD/svg10.dtd">
<svg version="1.0" xmlns="http://www.w3.org/2000/svg"
 width="388.000000pt" height="390.000000pt" viewBox="0 0 388.000000 390.000000"
 preserveAspectRatio="xMidYMid meet">
<metadata>
Created by potrace 1.16, written by Peter Selinger 2001-2019
</metadata>
<g transform="translate(0.000000,390.000000) scale(0.100000,-0.100000)"
fill="#000000" stroke="none">
<path d="M156 3888 c-3 -7 -7 -25 -10 -40 -8 -37 -60 -85 -107 -99 -31 -10
-39 -17 -39 -36 0 -17 8 -26 28 -33 57 -21 72 -34 96 -84 14 -28 28 -59 30
-69 11 -34 49 -17 64 28 17 50 45 81 103 111 70 35 73 62 8 83 -45 14 -83 54
-104 109 -14 33 -22 42 -41 42 -14 0 -26 -6 -28 -12z"/>
<path d="M1875 3890 c-22 -5 -59 -17 -83 -28 -24 -11 -222 -168 -441 -350
l-398 -330 -139 -4 c-127 -3 -143 -6 -189 -30 -114 -60 -166 -150 -173 -295
l-4 -92 -197 -163 c-108 -90 -208 -173 -224 -184 l-27 -22 0 -495 c0 -403 3
-497 13 -506 11 -8 18 -7 30 7 15 16 17 67 19 460 l3 441 662 -551 662 -550
-642 -534 -641 -534 -21 33 c-19 31 -20 50 -25 530 -5 520 -6 526 -47 510 -20
-8 -19 -989 1 -1038 27 -64 68 -107 131 -137 l60 -28 1729 0 c1213 0 1739 3
1765 11 59 18 114 61 149 119 l32 54 -1 1106 0 1105 -225 185 -224 184 0 76
c0 42 -7 99 -15 127 -21 70 -92 148 -170 184 -56 27 -68 29 -187 29 l-126 0
-304 252 c-166 138 -348 289 -403 335 -134 112 -237 148 -350 123z m977 -770
c209 0 323 -4 350 -12 51 -15 121 -77 147 -131 20 -42 21 -57 20 -513 l0 -469
-434 -360 c-239 -198 -447 -370 -462 -382 l-28 -22 -150 125 c-201 168 -222
179 -350 179 -79 0 -110 -4 -145 -20 -25 -11 -117 -80 -204 -152 -138 -115
-162 -131 -175 -119 -9 7 -217 181 -464 385 l-447 372 0 462 0 462 24 50 c28
60 66 97 126 124 44 20 62 21 842 21 685 0 799 2 811 15 10 10 43 15 108 17
80 3 96 0 107 -14 12 -17 40 -18 324 -18z m706 -2369 l-3 -437 -525 437 c-289
240 -525 441 -525 447 0 5 236 206 525 446 l525 436 3 -446 c1 -245 1 -642 0
-883z m-1495 710 c23 -10 326 -254 672 -542 347 -288 674 -560 727 -604 85
-70 97 -83 92 -105 -9 -44 -53 -108 -88 -129 l-33 -21 -1589 0 c-903 0 -1606
4 -1628 9 -21 5 -43 14 -48 19 -5 5 67 73 189 174 929 773 1395 1159 1421
1178 69 51 198 61 285 21z"/>
<path d="M897 2703 c-4 -3 -7 -15 -7 -25 0 -17 39 -18 1051 -18 l1050 0 -3 23
-3 22 -1041 3 c-572 1 -1044 -1 -1047 -5z"/>
<path d="M897 2273 c-4 -3 -7 -15 -7 -25 0 -17 39 -18 1051 -18 l1050 0 -3 23
-3 22 -1041 3 c-572 1 -1044 -1 -1047 -5z"/>
<path d="M903 1843 c-7 -2 -13 -13 -13 -24 0 -19 22 -19 1050 -19 1024 0 1050
0 1050 19 0 10 -7 22 -16 25 -19 7 -2053 7 -2071 -1z"/>
<path d="M531 3721 c-6 -11 -11 -27 -11 -36 0 -27 -38 -91 -70 -118 -17 -14
-58 -36 -91 -48 -50 -18 -59 -26 -57 -43 2 -13 14 -24 33 -29 87 -25 151 -90
177 -180 23 -82 70 -83 83 -1 8 57 61 114 151 162 89 47 91 69 9 91 -59 16
-101 57 -144 141 -39 78 -62 95 -80 61z m131 -221 l39 -28 -46 -32 c-25 -18
-59 -49 -75 -71 l-28 -39 -26 44 c-14 24 -42 58 -62 76 -33 29 -35 33 -20 42
34 19 87 71 102 100 l15 29 31 -46 c17 -26 49 -60 70 -75z"/>
<path d="M162 3438 c-5 -7 -13 -28 -17 -46 -9 -43 -53 -85 -104 -101 -37 -11
-42 -15 -39 -39 2 -20 9 -28 28 -31 44 -6 77 -39 106 -106 23 -53 33 -65 49
-63 13 2 24 16 33 43 16 49 43 79 102 113 25 14 48 31 52 36 12 18 -11 44 -46
50 -39 7 -78 48 -102 104 -20 49 -42 63 -62 40z"/>
</g>
</svg>
